<svg width="16" height="16" viewBox="0 0 16 16" fill="none" xmlns="http://www.w3.org/2000/svg">
<path d="M12.6667 5.33334C13.0203 5.33334 13.3594 5.19286 13.6095 4.94281C13.8595 4.69277 14 4.35363 14 4.00001C14 3.64638 13.8595 3.30724 13.6095 3.0572C13.3594 2.80715 13.0203 2.66667 12.6667 2.66667H3.33333C2.97971 2.66667 2.64057 2.80715 2.39052 3.0572C2.14048 3.30724 2 3.64638 2 4.00001C2 4.35363 2.14048 4.69277 2.39052 4.94281C2.64057 5.19286 2.97971 5.33334 3.33333 5.33334M12.6667 5.33334H3.33333M12.6667 5.33334V12C12.6667 12.3536 12.5262 12.6928 12.2761 12.9428C12.0261 13.1929 11.687 13.3333 11.3333 13.3333H4.66667C4.31304 13.3333 3.97391 13.1929 3.72386 12.9428C3.47381 12.6928 3.33333 12.3536 3.33333 12V5.33334M6.66667 8.00001H9.33333" stroke="#111625" stroke-width="1.33333" stroke-linecap="round" stroke-linejoin="round"/>
</svg>
