<svg width="16" height="16" viewBox="0 0 16 16" fill="none" xmlns="http://www.w3.org/2000/svg">
<path d="M2.6665 8.00001C2.6665 8.17682 2.73674 8.34639 2.86177 8.47141C2.98679 8.59644 3.15636 8.66668 3.33317 8.66668C3.50998 8.66668 3.67955 8.59644 3.80458 8.47141C3.9296 8.34639 3.99984 8.17682 3.99984 8.00001C3.99984 7.8232 3.9296 7.65363 3.80458 7.52861C3.67955 7.40358 3.50998 7.33334 3.33317 7.33334C3.15636 7.33334 2.98679 7.40358 2.86177 7.52861C2.73674 7.65363 2.6665 7.8232 2.6665 8.00001Z" stroke="#262626" stroke-width="1.5" stroke-linecap="round" stroke-linejoin="round"/>
<path d="M7.33317 8.00001C7.33317 8.17682 7.40341 8.34639 7.52843 8.47141C7.65346 8.59644 7.82303 8.66668 7.99984 8.66668C8.17665 8.66668 8.34622 8.59644 8.47124 8.47141C8.59627 8.34639 8.6665 8.17682 8.6665 8.00001C8.6665 7.8232 8.59627 7.65363 8.47124 7.52861C8.34622 7.40358 8.17665 7.33334 7.99984 7.33334C7.82303 7.33334 7.65346 7.40358 7.52843 7.52861C7.40341 7.65363 7.33317 7.8232 7.33317 8.00001Z" stroke="#262626" stroke-width="1.5" stroke-linecap="round" stroke-linejoin="round"/>
<path d="M11.9998 8.00001C11.9998 8.17682 12.0701 8.34639 12.1951 8.47141C12.3201 8.59644 12.4897 8.66668 12.6665 8.66668C12.8433 8.66668 13.0129 8.59644 13.1379 8.47141C13.2629 8.34639 13.3332 8.17682 13.3332 8.00001C13.3332 7.8232 13.2629 7.65363 13.1379 7.52861C13.0129 7.40358 12.8433 7.33334 12.6665 7.33334C12.4897 7.33334 12.3201 7.40358 12.1951 7.52861C12.0701 7.65363 11.9998 7.8232 11.9998 8.00001Z" stroke="#262626" stroke-width="1.5" stroke-linecap="round" stroke-linejoin="round"/>
</svg>
