<svg width="15" height="15" viewBox="0 0 15 15" fill="none" xmlns="http://www.w3.org/2000/svg">
<path d="M1.83333 6.5H12.5M1.83333 6.5C1.09695 6.5 0.5 5.90305 0.5 5.16667V4.5C0.5 3.76362 1.09695 3.16667 1.83333 3.16667H12.5C13.2364 3.16667 13.8333 3.76362 13.8333 4.5V5.16667C13.8333 5.90305 13.2364 6.5 12.5 6.5M1.83333 6.5L1.83333 12.5C1.83333 13.2364 2.43029 13.8333 3.16667 13.8333H11.1667C11.903 13.8333 12.5 13.2364 12.5 12.5V6.5M7.16667 3.16667H9.83333C10.5697 3.16667 11.1667 2.56971 11.1667 1.83333C11.1667 1.09695 10.5697 0.5 9.83333 0.5C8.36057 0.5 7.16667 1.69391 7.16667 3.16667ZM7.16667 3.16667H4.5C3.76362 3.16667 3.16667 2.56971 3.16667 1.83333C3.16667 1.09695 3.76362 0.5 4.5 0.5C5.97276 0.5 7.16667 1.69391 7.16667 3.16667ZM7.16667 3.16667V13.8333" stroke="#28303F" stroke-linecap="round"/>
</svg>
