<svg width="16" height="16" viewBox="0 0 16 16" fill="none" xmlns="http://www.w3.org/2000/svg">
<path d="M13.3335 9.33333L14.1954 8.47141C14.4558 8.21106 14.4558 7.78895 14.1954 7.5286L13.3335 6.66667" stroke="#28303F" stroke-linecap="round" stroke-linejoin="round"/>
<path d="M14.0002 8H8.66683M4.00016 13.3333C2.5274 13.3333 1.3335 12.1394 1.3335 10.6667V5.33333C1.3335 3.86058 2.5274 2.66667 4.00016 2.66667M4.00016 13.3333C5.47292 13.3333 6.66683 12.1394 6.66683 10.6667V5.33333C6.66683 3.86058 5.47292 2.66667 4.00016 2.66667M4.00016 13.3333H9.3335C10.8063 13.3333 12.0002 12.1394 12.0002 10.6667M4.00016 2.66667H9.3335C10.8063 2.66667 12.0002 3.86058 12.0002 5.33333" stroke="#28303F" stroke-linecap="round"/>
</svg>
