<svg width="14" height="14" viewBox="0 0 14 14" fill="none" xmlns="http://www.w3.org/2000/svg">
<path d="M2.9165 5.83332C2.9165 6.91629 3.34671 7.9549 4.11248 8.72068C4.87826 9.48645 5.91687 9.91666 6.99984 9.91666M6.99984 9.91666C8.0828 9.91666 9.12142 9.48645 9.88719 8.72068C10.653 7.9549 11.0832 6.91629 11.0832 5.83332M6.99984 9.91666V12.25M4.6665 12.25H9.33317M5.24984 2.91666C5.24984 2.45253 5.43421 2.00741 5.7624 1.67922C6.09059 1.35103 6.53571 1.16666 6.99984 1.16666C7.46397 1.16666 7.90909 1.35103 8.23727 1.67922C8.56546 2.00741 8.74984 2.45253 8.74984 2.91666V5.83332C8.74984 6.29745 8.56546 6.74257 8.23727 7.07076C7.90909 7.39895 7.46397 7.58332 6.99984 7.58332C6.53571 7.58332 6.09059 7.39895 5.7624 7.07076C5.43421 6.74257 5.24984 6.29745 5.24984 5.83332V2.91666Z" stroke="#262626" stroke-width="1.3" stroke-linecap="round" stroke-linejoin="round"/>
</svg>
