<svg width="14" height="14" viewBox="0 0 14 14" fill="none" xmlns="http://www.w3.org/2000/svg">
<path d="M8.75007 4.0833L4.9584 7.87497C4.72634 8.10703 4.59597 8.42178 4.59597 8.74997C4.59597 9.07816 4.72634 9.39291 4.9584 9.62497C5.19047 9.85703 5.50522 9.98741 5.8334 9.98741C6.16159 9.98741 6.47634 9.85703 6.7084 9.62497L10.5001 5.8333C10.9642 5.36917 11.2249 4.73968 11.2249 4.0833C11.2249 3.42693 10.9642 2.79743 10.5001 2.3333C10.0359 1.86917 9.40645 1.60843 8.75007 1.60843C8.09369 1.60843 7.4642 1.86917 7.00007 2.3333L3.2084 6.12497C2.51221 6.82116 2.12109 7.7654 2.12109 8.74997C2.12109 9.73454 2.51221 10.6788 3.2084 11.375C3.9046 12.0712 4.84884 12.4623 5.8334 12.4623C6.81797 12.4623 7.76221 12.0712 8.4584 11.375L12.2501 7.5833" stroke="#262626" stroke-width="1.3" stroke-linecap="round" stroke-linejoin="round"/>
</svg>
