<svg width="18" height="18" viewBox="0 0 18 18" fill="none" xmlns="http://www.w3.org/2000/svg">
<path d="M10.125 4.875L13.125 7.875M12 13.5H15M13.5 12V15M6 15L13.875 7.12504C14.072 6.92806 14.2282 6.69421 14.3348 6.43684C14.4415 6.17947 14.4963 5.90362 14.4963 5.62504C14.4963 5.34647 14.4415 5.07062 14.3348 4.81325C14.2282 4.55588 14.072 4.32203 13.875 4.12504C13.678 3.92806 13.4442 3.77181 13.1868 3.6652C12.9294 3.55859 12.6536 3.50372 12.375 3.50372C12.0964 3.50372 11.8206 3.55859 11.5632 3.6652C11.3058 3.77181 11.072 3.92806 10.875 4.12504L3 12V15H6Z" stroke="white" stroke-width="1.3" stroke-linecap="round" stroke-linejoin="round"/>
</svg>
