<svg width="20" height="20" viewBox="0 0 20 20" fill="none" xmlns="http://www.w3.org/2000/svg">
<path d="M17.9298 8.82811L12.9735 7.02655L11.172 2.0703C11.0832 1.83108 10.9233 1.62476 10.7138 1.47907C10.5043 1.33337 10.2552 1.25528 10.0001 1.25528C9.74491 1.25528 9.49585 1.33337 9.28636 1.47907C9.07688 1.62476 8.917 1.83108 8.8282 2.0703L7.02664 7.02655L2.07039 8.82811C1.83117 8.91691 1.62485 9.07679 1.47916 9.28627C1.33346 9.49576 1.25537 9.74482 1.25537 9.99999C1.25537 10.2552 1.33346 10.5042 1.47916 10.7137C1.62485 10.9232 1.83117 11.0831 2.07039 11.1719L7.02664 12.9742L8.8282 17.9297C8.917 18.1689 9.07688 18.3752 9.28636 18.5209C9.49585 18.6666 9.74491 18.7447 10.0001 18.7447C10.2552 18.7447 10.5043 18.6666 10.7138 18.5209C10.9233 18.3752 11.0832 18.1689 11.172 17.9297L12.9743 12.9734L17.9298 11.1719C18.169 11.0831 18.3753 10.9232 18.521 10.7137C18.6667 10.5042 18.7448 10.2552 18.7448 9.99999C18.7448 9.74482 18.6667 9.49576 18.521 9.28627C18.3753 9.07679 18.169 8.91691 17.9298 8.82811ZM12.272 11.8984C12.1862 11.9296 12.1084 11.9792 12.0439 12.0438C11.9793 12.1083 11.9297 12.1861 11.8985 12.2719L10.0001 17.4922L8.10164 12.2719C8.07042 12.1861 8.02082 12.1083 7.9563 12.0438C7.89179 11.9792 7.81393 11.9296 7.7282 11.8984L2.50789 9.99999L7.7282 8.10155C7.81393 8.07033 7.89179 8.02072 7.9563 7.95621C8.02082 7.8917 8.07042 7.81384 8.10164 7.72811L10.0001 2.5078L11.8985 7.72811C11.9297 7.81384 11.9793 7.8917 12.0439 7.95621C12.1084 8.02072 12.1862 8.07033 12.272 8.10155L17.4923 9.99999L12.272 11.8984Z" fill="#151515"/>
</svg>
