<svg width="16" height="16" viewBox="0 0 16 16" fill="none" xmlns="http://www.w3.org/2000/svg">
<path d="M2.66675 4.66667H13.3334M6.66675 7.33333V11.3333M9.33341 7.33333V11.3333M3.33341 4.66667L4.00008 12.6667C4.00008 13.0203 4.14056 13.3594 4.39061 13.6095C4.64065 13.8595 4.97979 14 5.33341 14H10.6667C11.0204 14 11.3595 13.8595 11.6096 13.6095C11.8596 13.3594 12.0001 13.0203 12.0001 12.6667L12.6667 4.66667M6.00008 4.66667V2.66667C6.00008 2.48986 6.07032 2.32029 6.19534 2.19526C6.32037 2.07024 6.48994 2 6.66675 2H9.33341C9.51023 2 9.6798 2.07024 9.80482 2.19526C9.92984 2.32029 10.0001 2.48986 10.0001 2.66667V4.66667" stroke="#DF1C41" stroke-width="1.33333" stroke-linecap="round" stroke-linejoin="round"/>
</svg>
