<svg width="16" height="16" viewBox="0 0 16 16" fill="none" xmlns="http://www.w3.org/2000/svg">
<path d="M10 6.66666L13.0353 5.14933C13.1369 5.09855 13.2499 5.07458 13.3633 5.0797C13.4768 5.08481 13.5871 5.11883 13.6837 5.17853C13.7804 5.23824 13.8602 5.32165 13.9155 5.42085C13.9709 5.52004 13.9999 5.63174 14 5.74533V10.2547C13.9999 10.3683 13.9709 10.48 13.9155 10.5792C13.8602 10.6783 13.7804 10.7618 13.6837 10.8215C13.5871 10.8812 13.4768 10.9152 13.3633 10.9203C13.2499 10.9254 13.1369 10.9014 13.0353 10.8507L10 9.33333V6.66666Z" stroke="#262626" stroke-width="1.5" stroke-linecap="round" stroke-linejoin="round"/>
<path d="M2 5.33333C2 4.97971 2.14048 4.64057 2.39052 4.39052C2.64057 4.14048 2.97971 4 3.33333 4H8.66667C9.02029 4 9.35943 4.14048 9.60948 4.39052C9.85952 4.64057 10 4.97971 10 5.33333V10.6667C10 11.0203 9.85952 11.3594 9.60948 11.6095C9.35943 11.8595 9.02029 12 8.66667 12H3.33333C2.97971 12 2.64057 11.8595 2.39052 11.6095C2.14048 11.3594 2 11.0203 2 10.6667V5.33333Z" stroke="#262626" stroke-width="1.5" stroke-linecap="round" stroke-linejoin="round"/>
</svg>
