<svg width="16" height="16" viewBox="0 0 16 16" fill="none" xmlns="http://www.w3.org/2000/svg">
<path d="M10.6667 6.66666L13.3333 9.33333M13.3333 6.66666L10.6667 9.33333M4 9.99998H2.66667C2.48986 9.99998 2.32029 9.92974 2.19526 9.80471C2.07024 9.67969 2 9.51012 2 9.33331V6.66664C2 6.48983 2.07024 6.32026 2.19526 6.19524C2.32029 6.07021 2.48986 5.99998 2.66667 5.99998H4L6.33333 2.99998C6.3916 2.8868 6.48843 2.79819 6.60633 2.75017C6.72422 2.70215 6.8554 2.69788 6.97617 2.73814C7.09693 2.77839 7.19932 2.86052 7.26482 2.96967C7.33033 3.07882 7.35463 3.2078 7.33333 3.33331V12.6666C7.35463 12.7921 7.33033 12.9211 7.26482 13.0303C7.19932 13.1394 7.09693 13.2216 6.97617 13.2618C6.8554 13.3021 6.72422 13.2978 6.60633 13.2498C6.48843 13.2018 6.3916 13.1132 6.33333 13L4 9.99998Z" stroke="#111625" stroke-width="1.33333" stroke-linecap="round" stroke-linejoin="round"/>
</svg>
